<svg width="84" height="84" viewBox="0 0 84 84" fill="none" 
  xmlns="http://www.w3.org/2000/svg">
  <path d="M16.7998 73.08H67.1998V31.08H16.7998V73.08ZM18.4798 63H26.0398V71.4H18.4798V63ZM46.1998 52.92V61.32H37.7998V52.92H46.1998ZM37.7998 51.24V42.84H46.1998V51.24H37.7998ZM36.1198 61.32H27.7198V52.92H36.1198V61.32ZM36.1198 63V71.4H27.7198V63H36.1198ZM37.7998 63H46.1998V71.4H37.7998V63ZM47.8798 63H56.2798V71.4H47.8798V63ZM47.8798 61.32V52.92H56.2798V61.32H47.8798ZM57.9598 52.92H65.5198V61.32H57.9598V52.92ZM57.9598 51.24V42.84H65.5198V51.24H57.9598ZM56.2798 51.24H47.8798V42.84H56.2798V51.24ZM47.8798 41.16V32.76H56.2798V41.16H47.8798ZM46.1998 41.16H37.7998V32.76H46.1998V41.16ZM36.1198 41.16H27.7198V32.76H36.1198V41.16ZM36.1198 42.84V51.24H27.7198V42.84H36.1198ZM26.0398 51.24H18.4798V42.84H26.0398V51.24ZM26.0398 52.92V61.32H18.4798V52.92H26.0398ZM57.9598 71.4V63H65.5198V71.4H57.9598ZM65.5198 41.16H57.9598V32.76H65.5198V41.16ZM26.0398 32.76V41.16H18.4798V32.76H26.0398Z" fill="#444444"/>
  <path d="M60.4798 18.48H58.7998V13.02C58.7998 12.0926 58.0472 11.34 57.1198 11.34C56.1924 11.34 55.4398 12.0926 55.4398 13.02V18.48H28.5598V13.02C28.5598 12.0926 27.8072 11.34 26.8798 11.34C25.9524 11.34 25.1998 12.0926 25.1998 13.02V18.48H23.5198C19.8087 18.48 16.7998 21.0689 16.7998 24.78V28.56H67.1998V24.78C67.1998 21.0689 64.1909 18.48 60.4798 18.48ZM26.8781 26.46C25.0217 26.46 23.5181 24.9564 23.5181 23.1C23.5181 21.8576 24.1994 20.7866 25.1998 20.2045V23.1C25.1998 24.0274 25.9524 24.78 26.8798 24.78C27.8072 24.78 28.5598 24.0274 28.5598 23.1V20.207C29.5586 20.7892 30.2381 21.8602 30.2381 23.1C30.2381 24.9564 28.7345 26.46 26.8781 26.46ZM57.1181 26.46C55.2617 26.46 53.7581 24.9564 53.7581 23.1C53.7581 21.8576 54.4394 20.7866 55.4398 20.2045V23.1C55.4398 24.0274 56.1924 24.78 57.1198 24.78C58.0472 24.78 58.7998 24.0274 58.7998 23.1V20.207C59.7986 20.7892 60.4781 21.8602 60.4781 23.1C60.4781 24.9564 58.9745 26.46 57.1181 26.46Z" fill="#444444"/>
  <path d="M34.4399 34.44H29.3999V39.48H34.4399V34.44Z" fill="#444444"/>
  <path d="M54.5996 54.6H49.5596V59.64H54.5996V54.6Z" fill="#444444"/>
  <path d="M44.5195 54.6H39.4795V59.64H44.5195V54.6Z" fill="#444444"/>
</svg>
