<svg width="180" height="180" viewBox="0 0 180 180" fill="none" 
  xmlns="http://www.w3.org/2000/svg">
  <g clip-path="url(#clip0)">
    <path opacity="0.1" d="M98.8674 28.1939C88.2895 27.6244 78.215 22.3375 68.5932 16.5521C58.9715 10.7666 49.4445 4.35604 39.1199 1.29122C32.4793 -0.680294 24.8858 -0.958684 19.5348 4.55345C14.3864 9.86818 12.7226 19.0171 11.8269 27.5131C11.1552 33.9085 10.758 40.6354 12.6032 46.6208C13.883 50.7764 16.1565 54.2689 17.7288 58.2499C23.1975 72.0986 19.3321 89.1766 13.4041 102.699C10.6256 109.041 7.39928 115.1 5.2533 121.847C3.10732 128.594 2.11524 136.336 3.99154 143.225C5.85313 150.058 10.2873 155.18 15.0892 158.787C24.845 166.111 36.3365 168.209 47.5518 169.396C72.3654 172.026 97.3131 170.887 122.192 169.748C131.4 169.325 140.648 168.897 149.706 166.693C154.736 165.468 159.931 163.525 163.582 158.848C168.217 152.893 169.366 142.807 166.261 135.341C161.05 122.816 146.648 119.703 143.001 106.262C140.996 98.8646 143.055 90.6217 145.968 83.7606C152.218 69.0388 162.693 56.1266 163.245 39.2991C163.624 27.7434 158.589 16.1699 150.802 10.7008C142.64 4.9685 131.324 5.68979 125.306 15.1778C119.101 24.9367 108.206 28.695 98.8674 28.1939V28.1939Z" fill="#217014"/>
    <path d="M16.2 180.855H163.8V57.855H16.2V180.855ZM21.12 151.335H43.26V175.935H21.12V151.335ZM102.3 121.815V146.415H77.7V121.815H102.3ZM77.7 116.895V92.295H102.3V116.895H77.7ZM72.78 146.415H48.18V121.815H72.78V146.415ZM72.78 151.335V175.935H48.18V151.335H72.78ZM77.7 151.335H102.3V175.935H77.7V151.335ZM107.22 151.335H131.82V175.935H107.22V151.335ZM107.22 146.415V121.815H131.82V146.415H107.22ZM136.74 121.815H158.88V146.415H136.74V121.815ZM136.74 116.895V92.295H158.88V116.895H136.74ZM131.82 116.895H107.22V92.295H131.82V116.895ZM107.22 87.375V62.775H131.82V87.375H107.22ZM102.3 87.375H77.7V62.775H102.3V87.375ZM72.78 87.375H48.18V62.775H72.78V87.375ZM72.78 92.295V116.895H48.18V92.295H72.78ZM43.26 116.895H21.12V92.295H43.26V116.895ZM43.26 121.815V146.415H21.12V121.815H43.26ZM136.74 175.935V151.335H158.88V175.935H136.74ZM158.88 87.375H136.74V62.775H158.88V87.375ZM43.26 62.775V87.375H21.12V62.775H43.26Z" fill="#444444"/>
    <path d="M138.7 20.955V21.455H139.2H144.12C154.756 21.455 163.3 28.8544 163.3 39.405V49.975H16.7V39.405C16.7 28.8544 25.2444 21.455 35.88 21.455H40.8H41.3V20.955V4.965C41.3 2.5253 43.2803 0.544998 45.72 0.544998C48.1597 0.544998 50.14 2.5253 50.14 4.965V20.955V21.455H50.64H129.36H129.86V20.955V4.965C129.86 2.5253 131.84 0.544998 134.28 0.544998C136.72 0.544998 138.7 2.5253 138.7 4.965V20.955ZM41.3 26.0054V25.136L40.5486 25.5732C37.4752 27.3615 35.3751 30.657 35.3751 34.485C35.3751 40.1977 40.0023 44.825 45.7151 44.825C51.4278 44.825 56.0551 40.1977 56.0551 34.485C56.0551 30.6647 53.9603 27.3692 50.8918 25.5808L50.14 25.1426V26.0128V34.485C50.14 36.9247 48.1597 38.905 45.72 38.905C43.2803 38.905 41.3 36.9247 41.3 34.485V26.0054ZM129.86 26.0054V25.136L129.109 25.5732C126.035 27.3615 123.935 30.657 123.935 34.485C123.935 40.1977 128.562 44.825 134.275 44.825C139.988 44.825 144.615 40.1977 144.615 34.485C144.615 30.6647 142.52 27.3692 139.452 25.5808L138.7 25.1426V26.0128V34.485C138.7 36.9247 136.72 38.905 134.28 38.905C131.84 38.905 129.86 36.9247 129.86 34.485V26.0054Z" fill="#444444" stroke="#444444"/>
    <path d="M67.86 67.695H53.1V82.455H67.86V67.695Z" fill="#FFAAF1"/>
    <path d="M97.38 126.735H82.62V141.495H97.38V126.735Z" fill="#FFAAF1"/>
  </g>
  <defs>
    <clipPath id="clip0">
      <rect width="180" height="180" fill="white"/>
    </clipPath>
  </defs>
</svg>
