<svg width="180" height="180" viewBox="0 0 180 180" fill="none" xmlns="http://www.w3.org/2000/svg">
<path d="M89.9713 54.6428L90 172.5" stroke="#444444" stroke-width="6" stroke-miterlimit="10" stroke-linecap="round" stroke-linejoin="round"/>
<path d="M90 172.5C113.555 172.36 164.643 156.786 172.5 86.0714C148.929 86.0714 90 105.714 90 164.643" fill="#9ED096"/>
<path d="M90 172.5C113.555 172.36 164.643 156.786 172.5 86.0714C148.929 86.0714 90 105.714 90 164.643" stroke="#444444" stroke-width="6" stroke-miterlimit="10" stroke-linecap="round" stroke-linejoin="round"/>
<path d="M90 172.5C66.4452 172.36 15.3571 156.786 7.5 86.0714C31.0714 86.0714 90 105.714 90 164.643" fill="#9ED096"/>
<path d="M90 172.5C66.4452 172.36 15.3571 156.786 7.5 86.0714C31.0714 86.0714 90 105.714 90 164.643" stroke="#444444" stroke-width="6" stroke-miterlimit="10" stroke-linecap="round" stroke-linejoin="round"/>
<path d="M90 54.6429C89.9964 19.2857 46.7857 23.2143 46.7857 23.2143C50.4557 28.7231 52.4115 44.5315 53.4537 59.8076C54.7645 79.0196 70.7147 93.9286 89.9713 93.9286H90.0287C109.285 93.9286 125.236 79.0196 126.546 59.8076C127.589 44.5315 129.544 28.7231 133.214 23.2143C133.214 23.2143 89.9964 19.2857 90 54.6429Z" fill="#FFAAF1" stroke="#444444" stroke-width="6" stroke-miterlimit="10" stroke-linecap="round" stroke-linejoin="round"/>
</svg>
