<svg width="1203" height="300" viewBox="0 0 1203 300" fill="none" 
    xmlns="http://www.w3.org/2000/svg">
    <path d="M952.7 70.1193C959.244 63.5117 961.918 53.5895 958.517 44.2449C953.837 31.3884 939.501 24.7812 926.519 29.5062C921.533 31.3209 917.565 34.4696 914.655 38.4761L914.204 36.6516C909.525 23.795 895.188 17.1878 882.206 21.9129C869.224 26.6379 862.489 40.9148 867.168 53.7713L867.996 55.4589C863.285 54.2258 858.128 54.3984 853.142 56.2131C840.16 60.9381 833.425 75.215 838.104 88.0716C841.494 97.3847 849.932 103.298 859.192 104.153C852.648 110.761 849.974 120.683 853.375 130.028C858.054 142.884 872.391 149.492 885.373 144.767C890.359 142.952 894.326 139.803 897.236 135.797L897.687 137.621C902.367 150.478 916.703 157.085 929.685 152.36C942.667 147.635 949.403 133.358 944.723 120.501L943.896 118.814C948.606 120.047 953.764 119.874 958.749 118.06C971.731 113.335 978.467 99.0578 973.788 86.2012C970.386 76.8567 961.96 70.9747 952.7 70.1193V70.1193ZM914.426 110.435C901.444 115.16 887.107 108.553 882.428 95.6963C877.748 82.8397 884.484 68.5629 897.466 63.8378C910.448 59.1127 924.784 65.7199 929.464 78.5765C934.143 91.4331 927.408 105.71 914.426 110.435Z" fill="black"/>
    <path d="M1165.26 98.01C1171.81 91.4023 1174.48 81.4801 1171.08 72.1356C1166.4 59.279 1152.06 52.6718 1139.08 57.3968C1134.1 59.2115 1130.13 62.3602 1127.22 66.3667L1126.77 64.5422C1122.09 51.6856 1107.75 45.0784 1094.77 49.8035C1081.79 54.5285 1075.05 68.8054 1079.73 81.662L1080.56 83.3495C1075.85 82.1164 1070.69 82.289 1065.7 84.1037C1052.72 88.8288 1045.99 103.106 1050.67 115.962C1054.06 125.275 1062.49 131.189 1071.75 132.044C1065.21 138.652 1062.54 148.574 1065.94 157.918C1070.62 170.775 1084.95 177.382 1097.94 172.657C1102.92 170.843 1106.89 167.694 1109.8 163.687L1110.25 165.512C1114.93 178.368 1129.27 184.976 1142.25 180.251C1155.23 175.526 1161.97 161.249 1157.29 148.392L1156.46 146.705C1161.17 147.938 1166.33 147.765 1171.31 145.95C1184.29 141.225 1191.03 126.948 1186.35 114.092C1182.95 104.747 1174.52 98.8654 1165.26 98.01V98.01ZM1126.99 138.326C1114.01 143.051 1099.67 136.443 1094.99 123.587C1090.31 110.73 1097.05 96.4535 1110.03 91.7284C1123.01 87.0034 1137.35 93.6106 1142.03 106.467C1146.71 119.324 1139.97 133.601 1126.99 138.326Z" fill="black"/>
    <path d="M939.306 115.326H932.568L925.172 124.35L945.476 128.989C967.874 138.489 982.296 148.357 991.127 158.386C1001.9 170.626 1005.1 183.12 1004.88 198.147C1004.85 200.375 1004.72 202.652 1004.53 204.979C973.004 199.087 946.558 212.501 934.311 232.373C927.154 243.985 924.798 258.008 929.411 270.957C934.024 283.904 957.679 293.329 975.769 299.999L968.466 288.599C953.28 282.999 948.256 279.271 940.341 272.487C928.281 260.426 934.038 240.92 939.306 232.373C948.408 217.604 975.869 213.452 1002.67 218.875C998.289 244.181 1091.31 240.786 1090.72 276.256L1079.41 280.401C1080.04 248.187 1011.96 249.357 1016.45 222.997C1047.73 234.892 1075.84 229.392 1094.02 214.234C1106.96 203.44 1114.78 187.81 1115.52 171.058V149.08L1101.25 163.355C1103.08 178.89 1105.87 195.096 1094.02 204.979C1079.87 216.78 1048.54 220.359 1020.88 209.641C1020.04 209.317 1019.21 209.018 1018.38 208.721C1018.71 205.233 1018.92 201.764 1018.97 198.334C1019.22 180.985 1015.81 164.002 1002.67 149.08C991.661 136.579 949.412 115.326 949.412 115.326H944.134H939.306Z" fill="black"/>
    <path d="M38.34 197.84C38.34 202.76 38.88 206.06 39.96 207.74C41.04 209.3 43.14 210.08 46.26 210.08C48.66 210.08 51.12 210.02 53.64 209.9C56.28 209.66 58.08 209.54 59.04 209.54L59.4 210.26L57.78 218.72C55.86 218.6 52.26 218.42 46.98 218.18C41.82 218.06 36.48 218 30.96 218C27.24 218 23.22 218.3 18.9 218.9C14.58 219.5 11.76 219.92 10.44 220.16L11.52 211.88C17.04 210.8 20.76 209.24 22.68 207.2C24.6 205.04 25.56 201.44 25.56 196.4L25.74 120.8C25.74 116.96 25.26 114.38 24.3 113.06C23.46 111.74 21.72 111.08 19.08 111.08C17.88 111.08 16.68 111.14 15.48 111.26C14.28 111.38 13.44 111.44 12.96 111.44L12.6 110.72L13.86 102.8C15.42 102.92 18.54 103.04 23.22 103.16C28.02 103.28 33.24 103.34 38.88 103.34C62.52 103.34 79.38 102.62 89.46 101.18L90 102.26C89.88 102.98 89.52 104.66 88.92 107.3C88.44 109.94 87.9 113.6 87.3 118.28C86.7 122.96 86.22 127.76 85.86 132.68L77.22 133.4C77.22 132.8 77.28 131.66 77.4 129.98C77.52 128.3 77.58 126.68 77.58 125.12C77.58 120.92 77.04 118.04 75.96 116.48C75 114.8 72.96 113.72 69.84 113.24C66.72 112.64 61.26 112.34 53.46 112.34C49.26 112.34 46.38 112.46 44.82 112.7C43.26 112.94 42.24 113.54 41.76 114.5C41.28 115.34 40.98 116.96 40.86 119.36L39.42 157.34L57.96 157.52C60.24 157.52 63.6 157.28 68.04 156.8C72.48 156.2 75.42 155.78 76.86 155.54L77.58 156.44L75.06 167.24C73.5 167.12 70.56 167 66.24 166.88C62.04 166.76 57.6 166.7 52.92 166.7C48.48 166.7 43.86 167.12 39.06 167.96L38.34 197.84ZM97.6894 212.78C101.049 211.82 103.389 210.62 104.709 209.18C106.149 207.74 106.989 206 107.229 203.96C107.589 201.92 107.769 198.5 107.769 193.7V105.32C107.769 98.84 105.549 95.6 101.109 95.6C100.269 95.6 99.3694 95.72 98.4094 95.96C97.4494 96.08 96.8494 96.2 96.6094 96.32C96.6094 95.6 96.7294 94.52 96.9694 93.08L97.3294 89.66C102.489 88.94 107.829 87.98 113.349 86.78C118.869 85.58 122.409 84.8 123.969 84.44L125.049 86.78C123.729 88.82 122.529 101.6 121.449 125.12C120.489 148.64 120.009 173.72 120.009 200.36C120.009 203.96 120.489 206.54 121.449 208.1C122.409 209.66 124.029 210.44 126.309 210.44C127.629 210.44 128.889 210.38 130.089 210.26C131.289 210.14 132.129 210.08 132.609 210.08L132.969 210.8L131.529 218.54C130.449 218.42 128.409 218.3 125.409 218.18C122.409 218.06 119.109 218 115.509 218C112.389 218 108.789 218.3 104.709 218.9C100.749 219.5 98.1694 219.92 96.9694 220.16L97.6894 212.78ZM177.455 201.62C191.495 168.02 198.515 149.9 198.515 147.26C198.515 144.14 196.235 142.58 191.675 142.58H183.395L183.035 141.86L184.115 135.92C185.195 136.04 187.535 136.22 191.135 136.46C194.855 136.58 198.575 136.64 202.295 136.64L217.595 136.46L216.335 143.12C213.695 143.6 211.655 144.56 210.215 146C208.895 147.32 207.575 149.78 206.255 153.38L183.035 208.1C176.195 223.7 170.855 235.04 167.015 242.12C163.295 249.2 159.575 254.18 155.855 257.06C152.255 260.06 147.815 261.5 142.535 261.38C141.575 261.38 140.015 259.94 137.855 257.06C135.695 254.3 134.615 252.32 134.615 251.12L135.515 249.86C142.475 249.86 149.015 247.04 155.135 241.4C161.375 235.88 166.535 228.14 170.615 218.18C167.735 209.06 163.895 197.78 159.095 184.34C154.415 170.9 150.395 160.04 147.035 151.76C145.595 148.76 143.915 146.6 141.995 145.28C140.195 143.96 137.795 143.24 134.795 143.12L134.435 142.4L135.515 136.46L150.455 136.64C154.895 136.64 159.275 136.46 163.595 136.1C168.035 135.74 170.855 135.5 172.055 135.38L172.415 136.28L171.335 141.86C167.255 141.98 164.435 142.4 162.875 143.12C161.435 143.72 160.715 144.86 160.715 146.54C160.715 148.46 161.915 153.5 164.315 161.66C166.715 169.82 169.175 177.92 171.695 185.96C174.215 194 175.895 199.22 176.735 201.62H177.455ZM291.113 197.84C291.113 202.76 291.653 206.06 292.733 207.74C293.813 209.3 295.913 210.08 299.033 210.08C301.433 210.08 303.893 210.02 306.413 209.9C309.053 209.66 310.853 209.54 311.813 209.54L312.173 210.26L310.553 218.72C308.633 218.6 305.033 218.42 299.753 218.18C294.593 218.06 289.253 218 283.733 218C280.013 218 275.993 218.3 271.673 218.9C267.353 219.5 264.533 219.92 263.213 220.16L264.293 211.88C269.813 210.8 273.533 209.24 275.453 207.2C277.373 205.04 278.333 201.44 278.333 196.4L278.513 120.8C278.513 116.96 278.033 114.38 277.073 113.06C276.233 111.74 274.493 111.08 271.853 111.08C270.653 111.08 269.453 111.14 268.253 111.26C267.053 111.38 266.213 111.44 265.733 111.44L265.373 110.72L266.633 102.8C268.193 102.92 271.313 103.04 275.993 103.16C280.793 103.28 286.013 103.34 291.653 103.34C315.293 103.34 332.153 102.62 342.233 101.18L342.773 102.26C342.653 102.98 342.293 104.66 341.693 107.3C341.213 109.94 340.673 113.6 340.073 118.28C339.473 122.96 338.993 127.76 338.633 132.68L329.993 133.4C329.993 132.8 330.053 131.66 330.173 129.98C330.293 128.3 330.353 126.68 330.353 125.12C330.353 120.92 329.813 118.04 328.733 116.48C327.773 114.8 325.733 113.72 322.613 113.24C319.493 112.64 314.033 112.34 306.233 112.34C302.033 112.34 299.153 112.46 297.593 112.7C296.033 112.94 295.013 113.54 294.533 114.5C294.053 115.34 293.753 116.96 293.633 119.36L292.193 157.34L310.733 157.52C313.013 157.52 316.373 157.28 320.813 156.8C325.253 156.2 328.193 155.78 329.633 155.54L330.353 156.44L327.833 167.24C326.273 167.12 323.333 167 319.013 166.88C314.813 166.76 310.373 166.7 305.693 166.7C301.253 166.7 296.633 167.12 291.833 167.96L291.113 197.84ZM350.463 212.78C353.823 211.82 356.163 210.62 357.483 209.18C358.923 207.74 359.763 206 360.003 203.96C360.363 201.92 360.543 198.5 360.543 193.7V105.32C360.543 98.84 358.323 95.6 353.883 95.6C353.043 95.6 352.143 95.72 351.183 95.96C350.223 96.08 349.623 96.2 349.383 96.32C349.383 95.6 349.503 94.52 349.743 93.08L350.103 89.66C355.263 88.94 360.603 87.98 366.123 86.78C371.643 85.58 375.183 84.8 376.743 84.44L377.823 86.78C376.503 88.82 375.303 101.6 374.223 125.12C373.263 148.64 372.783 173.72 372.783 200.36C372.783 203.96 373.263 206.54 374.223 208.1C375.183 209.66 376.803 210.44 379.083 210.44C380.403 210.44 381.663 210.38 382.863 210.26C384.063 210.14 384.903 210.08 385.383 210.08L385.743 210.8L384.303 218.54C383.223 218.42 381.183 218.3 378.183 218.18C375.183 218.06 371.883 218 368.283 218C365.163 218 361.563 218.3 357.483 218.9C353.523 219.5 350.943 219.92 349.743 220.16L350.463 212.78ZM430.228 220.16C423.388 220.16 417.328 218.48 412.048 215.12C406.768 211.76 402.628 207.08 399.628 201.08C396.748 194.96 395.308 188 395.308 180.2C395.308 171.8 397.108 164.12 400.708 157.16C404.428 150.08 409.468 144.56 415.828 140.6C422.188 136.52 429.268 134.48 437.068 134.48C443.788 134.48 449.788 136.16 455.068 139.52C460.468 142.88 464.608 147.62 467.488 153.74C470.488 159.74 471.988 166.64 471.988 174.44C471.988 182.84 470.128 190.58 466.408 197.66C462.808 204.62 457.828 210.14 451.468 214.22C445.108 218.18 438.028 220.16 430.228 220.16ZM435.268 211.34C441.988 211.34 447.328 208.64 451.288 203.24C455.248 197.72 457.228 190.28 457.228 180.92C457.228 173.84 456.148 167.54 453.988 162.02C451.828 156.38 448.768 152 444.808 148.88C440.968 145.76 436.588 144.2 431.668 144.2C424.948 144.2 419.608 146.96 415.648 152.48C411.688 158 409.708 165.5 409.708 174.98C409.708 182.06 410.788 188.36 412.948 193.88C415.108 199.4 418.108 203.72 421.948 206.84C425.788 209.84 430.228 211.34 435.268 211.34ZM584.024 147.44C584.024 145.76 583.424 144.62 582.224 144.02C581.144 143.3 579.284 142.94 576.644 142.94H569.984L569.264 141.86L570.164 136.28C571.244 136.28 573.404 136.34 576.644 136.46C579.884 136.58 583.664 136.64 587.984 136.64L602.744 136.46L601.484 143.12C599.084 143.36 597.164 144.38 595.724 146.18C594.284 147.86 592.484 151.34 590.324 156.62L564.944 218L555.404 221.06L539.204 167.96H538.124L518.144 218L508.424 221.06C506.744 215.3 503.264 204.02 497.984 187.22C492.824 170.3 489.224 158.6 487.184 152.12C485.144 146.24 481.184 143.24 475.304 143.12L474.944 142.4L476.024 136.46L490.424 136.64C494.984 136.64 499.304 136.46 503.384 136.1C507.584 135.74 510.284 135.5 511.484 135.38L511.844 136.28L510.764 141.86C506.804 141.98 504.104 142.4 502.664 143.12C501.224 143.72 500.504 144.86 500.504 146.54C500.504 148.82 502.544 157.52 506.624 172.64C510.824 187.76 513.704 198.02 515.264 203.42H515.984C515.984 203.42 519.344 195.02 526.064 178.22L535.064 155C533.744 150.92 532.124 147.92 530.204 146C528.404 144.08 525.764 143.12 522.284 143.12L521.924 142.4L523.004 136.46L537.404 136.64C541.844 136.64 546.164 136.52 550.364 136.28C554.564 136.04 557.264 135.86 558.464 135.74L558.824 136.64L557.744 142.22C553.664 142.34 550.904 142.7 549.464 143.3C548.144 143.9 547.484 144.98 547.484 146.54C547.484 148.7 549.524 157.4 553.604 172.64C557.804 187.76 560.684 198.02 562.244 203.42H562.964L572.864 178.58C577.064 168.14 579.944 160.7 581.504 156.26C583.184 151.82 584.024 148.88 584.024 147.44ZM619.746 174.44C619.746 184.52 622.146 192.62 626.946 198.74C631.866 204.86 638.346 207.92 646.386 207.92C649.746 207.92 653.046 207.5 656.286 206.66C659.526 205.82 662.226 204.98 664.386 204.14C666.546 203.18 667.926 202.58 668.526 202.34L669.606 202.7L671.586 207.92C670.746 208.52 668.766 209.84 665.646 211.88C662.646 213.8 659.106 215.66 655.026 217.46C650.946 219.26 647.286 220.16 644.046 220.16C636.606 220.16 630.006 218.54 624.246 215.3C618.486 211.94 614.046 207.26 610.926 201.26C607.806 195.14 606.246 188.18 606.246 180.38C606.246 172.34 608.046 164.78 611.646 157.7C615.366 150.62 620.286 144.98 626.406 140.78C632.526 136.58 639.066 134.48 646.026 134.48C654.786 134.48 661.446 136.7 666.006 141.14C670.566 145.58 672.846 152.06 672.846 160.58C672.846 162.5 672.666 164.36 672.306 166.16C672.066 167.84 671.886 168.92 671.766 169.4L669.426 171.56H619.746V174.44ZM653.046 163.28C654.846 163.04 656.046 162.62 656.646 162.02C657.246 161.42 657.546 160.22 657.546 158.42C657.546 153.62 656.226 149.96 653.586 147.44C651.066 144.92 647.406 143.66 642.606 143.66C636.966 143.66 632.106 145.58 628.026 149.42C624.066 153.26 621.546 158.42 620.466 164.9L653.046 163.28ZM691.069 211.52C694.669 211.16 697.069 210.02 698.269 208.1C699.469 206.06 700.069 202.22 700.069 196.58V156.98C700.069 153.02 699.529 150.2 698.449 148.52C697.369 146.84 695.629 146 693.229 146C692.269 146 691.429 146.06 690.709 146.18C690.109 146.3 689.689 146.42 689.449 146.54L688.549 145.28L689.089 139.7C693.649 138.86 698.449 137.84 703.489 136.64C708.649 135.44 711.949 134.66 713.389 134.3L714.649 135.38C714.409 136.46 714.049 138.98 713.569 142.94C713.089 146.78 712.909 150.44 713.029 153.92L713.749 154.46C717.349 148.82 721.549 144.2 726.349 140.6C731.269 137 735.529 135.2 739.129 135.2C740.809 135.2 742.069 135.32 742.909 135.56C743.869 135.68 744.469 135.8 744.709 135.92L745.249 136.64C745.009 138.32 744.469 141.92 743.629 147.44C742.909 152.84 742.489 157.82 742.369 162.38L735.349 162.92C735.349 158 734.989 154.76 734.269 153.2C733.669 151.52 732.409 150.68 730.489 150.68C727.849 150.68 725.029 151.82 722.029 154.1C719.029 156.26 716.269 159.2 713.749 162.92C713.629 166.4 713.389 172.16 713.029 180.2C712.669 188.24 712.429 194.72 712.309 199.64C712.309 203.72 712.909 206.48 714.109 207.92C715.309 209.36 717.589 210.08 720.949 210.08C722.509 210.08 724.069 210.02 725.629 209.9C727.189 209.78 728.269 209.72 728.869 209.72L729.049 210.44L727.429 218.36C726.229 218.36 723.829 218.3 720.229 218.18C716.629 218.06 712.909 218 709.069 218C704.629 218 700.609 218.06 697.009 218.18C693.409 218.42 691.129 218.6 690.169 218.72L691.069 211.52ZM780.135 220.16C776.295 220.16 772.755 219.86 769.515 219.26C766.395 218.78 763.935 218.24 762.135 217.64C760.335 217.04 759.195 216.62 758.715 216.38L758.175 215.12C758.535 213.32 758.955 209.6 759.435 203.96C759.915 198.32 760.215 194 760.335 191L766.635 190.1C766.635 198.02 767.955 203.6 770.595 206.84C773.235 210.08 777.735 211.7 784.095 211.7C788.655 211.7 792.495 210.68 795.615 208.64C798.735 206.6 800.295 204.08 800.295 201.08C800.295 198.08 798.855 195.38 795.975 192.98C793.215 190.46 787.695 186.98 779.415 182.54C772.575 179.06 767.595 175.58 764.475 172.1C761.355 168.5 759.795 164.54 759.795 160.22C759.795 155.42 761.235 151.04 764.115 147.08C766.995 143.12 770.955 140.06 775.995 137.9C781.035 135.62 786.675 134.48 792.915 134.48C795.795 134.48 798.555 134.72 801.195 135.2C803.835 135.56 805.995 135.98 807.675 136.46C809.355 136.94 810.435 137.24 810.915 137.36L811.275 138.26C811.035 139.46 810.495 142.22 809.655 146.54C808.815 150.74 808.215 155.3 807.855 160.22L801.195 160.76C801.195 160.4 801.255 159.68 801.375 158.6C801.495 157.52 801.555 156.5 801.555 155.54C801.555 151.22 800.355 148.1 797.955 146.18C795.675 144.14 791.955 143.12 786.795 143.12C782.715 143.12 779.235 144.08 776.355 146C773.595 147.92 772.215 150.26 772.215 153.02C772.215 155.9 773.415 158.6 775.815 161.12C778.335 163.64 782.355 166.34 787.875 169.22C797.595 174.38 804.195 178.7 807.675 182.18C811.275 185.66 813.075 189.68 813.075 194.24C813.075 198.8 811.515 203.06 808.395 207.02C805.395 210.98 801.375 214.16 796.335 216.56C791.295 218.96 785.895 220.16 780.135 220.16Z" fill="black"/>
</svg>
