<svg width="180" height="180" viewBox="0 0 180 180" fill="none" 
  xmlns="http://www.w3.org/2000/svg">
  <path opacity="0.1" d="M94.618 21.3603C83.4631 20.8075 80.8242 28.8075 70.6776 23.1912C60.531 17.5749 54.9778 4.22867 44.0901 1.25346C37.0873 -0.660404 29.0796 -0.93065 23.4367 4.42031C18.0075 9.57964 16.2529 18.4611 15.3084 26.7086C14.6 32.917 14.1812 39.4472 16.1271 45.2576C17.4766 49.2917 19.8741 52.6822 21.5321 56.5467C27.2992 69.9905 23.223 86.5691 16.9716 99.6959C14.0415 105.853 10.6392 111.734 8.37621 118.284C6.11318 124.834 5.06698 132.35 7.04562 139.037C9.00876 145.67 13.6848 150.643 18.7486 154.144C29.0365 161.254 41.1549 163.291 52.9819 164.443C79.149 166.996 105.457 165.89 131.693 164.784C141.404 164.374 146.948 163.14 156.5 161C161.805 159.811 168.65 158.54 172.5 154C177 146.5 177.5 140.5 175.341 132C169.846 119.841 164.553 117.548 160.708 104.5C158.593 97.3187 164.429 82.1604 167.5 75.5C174.091 61.2087 153.055 61.5931 153.638 45.2576C153.993 35.3016 143.015 64.787 139.835 36.6177C136.655 8.4483 139.835 31.125 124.381 33.5662C107.782 52.4853 104.466 21.8468 94.618 21.3603Z" fill="#217014"/>
  <path d="M137.198 108.027C132.332 112.893 127.185 117.291 121.71 121.174C112.259 128.006 102.059 133.34 91.4845 137.177L42.8233 88.5155C46.6604 77.941 51.9941 67.7409 58.8255 58.2897C62.7088 52.8151 67.1074 47.6684 71.9734 42.8024C99.6729 15.1027 137.151 2.98416 173.366 6.63385C177.016 42.8489 164.897 80.3271 137.198 108.027Z" fill="#777777" stroke="#444444" stroke-width="6" stroke-miterlimit="10" stroke-linecap="round" stroke-linejoin="round"/>
  <path d="M118.622 164.315C105.708 177.229 84.7468 177.229 71.8328 164.315C66.1712 158.653 62.9895 151.447 62.2878 144.008C72.2072 142.979 82.0329 140.639 91.4845 137.177C102.059 133.34 112.259 128.006 121.71 121.174C131.443 134.088 130.413 152.524 118.622 164.315Z" fill="#777777" stroke="#444444" stroke-width="6" stroke-miterlimit="10" stroke-linecap="round" stroke-linejoin="round"/>
  <path d="M35.9922 117.712C28.5526 117.01 21.3471 113.829 15.6855 108.167C2.77152 95.2532 2.77152 74.2916 15.6855 61.3776C27.4765 49.5866 45.9116 48.5571 58.8255 58.2896C51.9941 67.7409 46.6603 77.941 42.8233 88.5155C39.3609 97.9671 37.0215 107.793 35.9922 117.712Z" fill="#777777" stroke="#444444" stroke-width="6" stroke-miterlimit="10" stroke-linecap="round" stroke-linejoin="round"/>
  <path d="M137.339 61.3774C142.507 56.2092 142.507 47.8298 137.339 42.6615C132.171 37.4933 123.791 37.4933 118.623 42.6615C113.455 47.8298 113.455 56.2092 118.623 61.3774C123.791 66.5457 132.171 66.5457 137.339 61.3774Z" fill="#E9F1E8" stroke="#444444" stroke-width="6" stroke-miterlimit="10" stroke-linecap="round" stroke-linejoin="round"/>
</svg>
